<svg width="23" height="17" fill="none" xmlns="http://www.w3.org/2000/svg"><path d="M1.102.842c.353-.056.62-.136.887-.136 6.098-.008 12.195-.008 18.293 0 .268 0 .536.075.891.13-.133.156-.197.245-.275.321-2.744 2.721-5.486 5.444-8.234 8.16-.953.941-2.064.961-3.002.037-2.779-2.74-5.547-5.493-8.32-8.24-.054-.055-.102-.116-.24-.272z" fill="#fff"/><path d="M1.195 16.187l6.725-6.82c.286.318.534.624.813.899 1.429 1.41 3.385 1.41 4.816.005.28-.275.54-.568.833-.875l6.687 6.785c-.28.036-.59.111-.902.112-3.909.008-7.818.006-11.727.006-2.106 0-4.21.005-6.317-.005-.308-.002-.615-.07-.928-.107zM.15 15.232c-.06-.373-.144-.639-.144-.905-.008-3.88-.008-7.758 0-11.637.001-.268.078-.534.125-.83l6.605 6.708-6.585 6.664zM15.55 8.458l6.576-6.669c.064.337.154.595.154.853.008 3.906.008 7.811 0 11.716 0 .255-.08.508-.131.803L15.55 8.458z" fill="#fff"/></svg>