<svg width="48" height="33" viewBox="0 0 48 33" fill="none" xmlns="http://www.w3.org/2000/svg">
<path d="M47.9913 0.00842285H0V32.003H47.9913V0.00842285Z" fill="#F0F0F0"/>
<path d="M26.9951 0.00805664H20.9962V13.0056H0V19.0045H20.9962V32.0021H26.9951V19.0045H47.9913V13.0056H26.9951V0.00805664Z" fill="#D80027"/>
<path d="M36.918 21.5691L47.9986 27.7251V21.5691H36.918Z" fill="#0052B4"/>
<path d="M29.2148 21.5691L47.9941 32.0019V29.0518L34.5253 21.5691H29.2148Z" fill="#0052B4"/>
<path d="M42.9919 32.0028L29.2148 24.3481V32.0028H42.9919Z" fill="#0052B4"/>
<path d="M29.2109 21.5691L47.9901 32.0019V29.0518L34.5214 21.5691H29.2109Z" fill="#F0F0F0"/>
<path d="M29.2109 21.5691L47.9901 32.0019V29.0518L34.5214 21.5691H29.2109Z" fill="#D80027"/>
<path d="M8.46793 21.5691L0 26.2735V21.5691H8.46793Z" fill="#0052B4"/>
<path d="M18.7805 22.8962V32.0025H2.39062L18.7805 22.8962Z" fill="#0052B4"/>
<path d="M13.4688 21.5691L0 29.0518V32.0019L18.7792 21.5691H13.4688Z" fill="#D80027"/>
<path d="M11.0806 10.441L0 4.28503V10.441H11.0806Z" fill="#0052B4"/>
<path d="M18.7792 10.4409L0 0.00805664V2.95821L13.4688 10.4409H18.7792Z" fill="#0052B4"/>
<path d="M5.00391 0.00805664L18.781 7.66266V0.00805664H5.00391Z" fill="#0052B4"/>
<path d="M18.7792 10.4409L0 0.00805664V2.95821L13.4688 10.4409H18.7792Z" fill="#F0F0F0"/>
<path d="M18.7792 10.4409L0 0.00805664V2.95821L13.4688 10.4409H18.7792Z" fill="#D80027"/>
<path d="M39.5312 10.4409L47.9992 5.73645V10.4409H39.5312Z" fill="#0052B4"/>
<path d="M29.2148 9.11431V0.00805664H45.6047L29.2148 9.11431Z" fill="#0052B4"/>
<path d="M34.5214 10.4409L47.9901 2.95821V0.00805664L29.2109 10.4409H34.5214Z" fill="#D80027"/>
</svg>
