<svg width="21" height="21" fill="none" xmlns="http://www.w3.org/2000/svg"><path d="M10.502 3.076a1.848 1.848 0 00-1.846 1.846c0 1.018.828 1.846 1.846 1.846a1.848 1.848 0 001.846-1.846 1.848 1.848 0 00-1.846-1.846z" fill="#E1E1E1"/><path d="M10.5 0a4.927 4.927 0 00-4.922 4.922c0 .93.261 1.837.756 2.622L10.5 14.19l4.166-6.647a4.91 4.91 0 00.756-2.622A4.927 4.927 0 0010.5 0zm0 7.998a3.08 3.08 0 01-3.076-3.076A3.08 3.08 0 0110.5 1.846a3.08 3.08 0 013.076 3.076A3.08 3.08 0 0110.5 7.998zM7.508 21h5.986l-.473-3.732H7.97L7.508 21zM8.121 16.037h2.088l-1.742-2.764-.346 2.764zM14.102 16.037h4.847l-1.538-3.691H13.63l.473 3.691zM2.05 16.037h4.831l.461-3.691H3.59L2.05 16.037zM10.793 16.037h2.07l-.35-2.728-1.72 2.728zM6.727 17.268h-5.19L0 21h6.266l.461-3.732zM19.46 17.268h-5.202L14.73 21h6.267l-1.538-3.732z" fill="#E1E1E1"/></svg>