<svg width="21" height="21" fill="none" xmlns="http://www.w3.org/2000/svg"><path d="M16.05 21c-1.268-.056-2.596-.508-3.838-1.178-4.768-2.575-8.46-6.241-11.023-11.019C.577 7.661.151 6.443.025 5.14c-.11-1.118.128-2.11 1.002-2.902.561-.507 1.071-1.07 1.615-1.597.867-.84 2.1-.86 2.974-.018a104.25 104.25 0 012.87 2.87c1.033 1.075.679 2.647-.698 3.223-1.176.492-1.608 1.4-1.199 2.612.479 1.417 1.426 2.512 2.521 3.49.689.614 1.445 1.134 2.31 1.479 1.293.515 2.33.083 2.874-1.197.518-1.216 2.052-1.635 3.033-.744 1.12 1.016 2.18 2.102 3.211 3.21.693.743.584 1.942-.177 2.74a65.674 65.674 0 01-1.95 1.947c-.609.588-1.376.755-2.36.748z" fill="#fff"/></svg>