<svg width="499" height="148" fill="none" xmlns="http://www.w3.org/2000/svg"><path d="M97.918 147.16a3.874 3.874 0 10.001-7.748 3.874 3.874 0 000 7.748zM137.988 124.92a3.875 3.875 0 100-7.75 3.875 3.875 0 000 7.75zM124.151 9.324a3.874 3.874 0 100-7.748 3.874 3.874 0 000 7.748zM17.444 98.873a3.333 3.333 0 01-2.902-1.66L0 72.321 41.932.198l57.395 1.392 15.381 26.652L86.144 77.22l-61.22-1.241 30.493-52.213 34.45.704L73.7 52.194a3.364 3.364 0 01-4.596 1.208 3.364 3.364 0 01-1.207-4.596L78.31 30.943l-19.087-.385-22.727 38.946 45.857.939 24.605-42.2L95.403 8.217 45.756 7.009 7.766 72.322 20.328 93.84c.94 1.593.386 3.656-1.207 4.596a3.34 3.34 0 01-1.677.436z" fill="#FCB500"/><path d="M151.273 101.607a3.463 3.463 0 01-1.694-.453 3.363 3.363 0 01-1.208-4.595l10.416-17.863-22.962-.47-15.397-26.651 17.192-29.47 16.37 28.346a3.36 3.36 0 01-1.225 4.579 3.36 3.36 0 01-4.579-1.225l-10.583-18.332-9.393 16.118 11.557 20.01 30.576.62-16.169 27.726a3.332 3.332 0 01-2.901 1.66zM124.688 147.197a3.348 3.348 0 01-2.902-1.678l-14.441-25.024 13.3-22.794-9.577-16.706-11.405 19.574-22.794-.47 10.5 18.182a3.36 3.36 0 01-1.225 4.579 3.36 3.36 0 01-4.579-1.225L65.111 93.139l30.744.62 15.263-26.182 17.276 30.14-13.284 22.778 12.496 21.653a3.36 3.36 0 01-1.224 4.579 3.316 3.316 0 01-1.694.47zM77.037 146.223l-32.724-.671c-1.845-.034-3.32-1.577-3.287-3.422.033-1.845 1.593-3.254 3.421-3.287l20.815.419-21.066-36.497-10.382 17.796a3.364 3.364 0 01-4.596 1.207 3.364 3.364 0 01-1.208-4.596l16.203-27.775 32.824 56.826z" fill="#000"/><path d="M209.946 121.289c.074-1.616-.458-3.025-1.595-4.227-1.383-1.467-3.377-2.222-5.982-2.265h-.08c-1.552-.021-2.658-.377-3.317-1.068-.415-.447-.612-.947-.59-1.5.042-.903.42-1.669 1.132-2.296.723-.628 1.585-.941 2.584-.941.978 0 1.845.175 2.6.526.861.404 1.388.962 1.579 1.675.128.499.415.882.861 1.148.447.255.92.319 1.42.192.5-.128.877-.415 1.132-.862.266-.446.335-.92.208-1.419-.447-1.702-1.494-2.999-3.143-3.892-1.371-.744-2.924-1.117-4.657-1.117-2.01 0-3.732.66-5.168 1.978-1.435 1.319-2.195 2.935-2.281 4.849-.074 1.606.458 3.015 1.595 4.227 1.383 1.457 3.377 2.206 5.982 2.249h.032.047c1.553.021 2.659.382 3.318 1.084.415.436.611.931.59 1.484-.042.914-.425 1.68-1.148 2.296-.713.628-1.569.941-2.568.941-.978 0-1.85-.175-2.616-.526-.851-.404-1.372-.962-1.563-1.675a1.815 1.815 0 00-.861-1.148 1.842 1.842 0 00-1.42-.191c-.5.127-.882.414-1.148.861a1.84 1.84 0 00-.192 1.419c.447 1.702 1.494 2.999 3.142 3.892 1.372.745 2.925 1.117 4.658 1.117 1.999 0 3.722-.66 5.168-1.978 1.435-1.319 2.195-2.93 2.281-4.833zM219.739 126.218c0 .521.186.967.558 1.339.362.362.803.543 1.324.543s.962-.181 1.324-.543c.372-.372.558-.818.558-1.339V108.96h4.753c.511 0 .952-.186 1.324-.559.362-.361.542-.802.542-1.323 0-.521-.18-.963-.542-1.324a1.809 1.809 0 00-1.324-.558h-13.254c-.521 0-.968.186-1.34.558a1.799 1.799 0 00-.542 1.324c0 .521.18.962.542 1.323.372.373.819.559 1.34.559h4.737v17.258zM238.018 114.734v-5.79h4.721c.925 0 1.717.282 2.376.845.66.564.989 1.25.989 2.058 0 .776-.313 1.446-.941 2.009-.638.553-1.403.846-2.297.878h-4.848zm11.834-2.887c0-1.84-.696-3.408-2.089-4.706-1.382-1.297-3.057-1.945-5.024-1.945h-6.604c-.51 0-.951.186-1.323.558a1.8 1.8 0 00-.543 1.324v19.012c0 .51.181.952.543 1.324.372.361.813.542 1.323.542.521 0 .963-.181 1.324-.542.372-.372.559-.814.559-1.324v-7.608h3.237l4.227 8.565c.34.702.899 1.053 1.675 1.053.287 0 .563-.064.829-.192a1.79 1.79 0 00.941-1.084c.17-.489.144-.963-.079-1.42l-3.621-7.337c1.372-.478 2.478-1.281 3.318-2.408.871-1.138 1.307-2.409 1.307-3.812zM260.491 119.487l3.063-7.401 3.078 7.401h-6.141zm-5.535 8.469c.234.096.474.144.718.144.84 0 1.42-.388 1.739-1.165l1.531-3.7h9.235l1.531 3.7c.319.777.899 1.165 1.739 1.165.244 0 .484-.048.718-.144a1.849 1.849 0 001.02-1.021 1.86 1.86 0 000-1.435l-2.025-4.865v-.016l-5.87-14.163a1.039 1.039 0 00-.08-.16c0-.011-.016-.037-.048-.08-.031-.042-.047-.069-.047-.079 0-.011-.022-.038-.064-.08l-.048-.064c0-.011-.021-.037-.064-.08-.032-.032-.048-.053-.048-.064a.305.305 0 01-.079-.063c-.032-.032-.054-.048-.064-.048a.899.899 0 00-.08-.064l-.064-.048a.683.683 0 00-.095-.064c-.054-.032-.075-.042-.064-.032a1.327 1.327 0 00-.351-.143c.021 0 0-.005-.064-.016a.37.37 0 00-.112-.032l-.079-.016-.096-.016h-.367l-.08.016a.632.632 0 01-.111.016l-.064.016a.697.697 0 01-.112.032.484.484 0 01-.111.032l-.064.032c.021-.011.005 0-.048.032-.053.021-.09.037-.112.047a.357.357 0 00-.095.048l-.064.048a.899.899 0 01-.08.064c-.053.032-.074.048-.064.048-.01 0-.037.021-.08.064a.524.524 0 00-.063.047c0 .011-.022.038-.064.08-.032.032-.048.053-.048.064l-.064.064c-.032.042-.048.069-.048.08a.887.887 0 00-.063.079 2.5 2.5 0 00-.032.08 1.039 1.039 0 00-.08.16l-5.87 14.163v.016l-2.025 4.865a1.86 1.86 0 000 1.435c.202.479.542.819 1.02 1.021zM282.199 126.218c0 .521.186.967.558 1.339.362.362.803.543 1.324.543a1.8 1.8 0 001.324-.543c.372-.372.558-.818.558-1.339V108.96h4.753c.511 0 .952-.186 1.324-.559.362-.361.543-.802.543-1.323a1.8 1.8 0 00-.543-1.324 1.809 1.809 0 00-1.324-.558h-13.254c-.521 0-.968.186-1.34.558a1.802 1.802 0 00-.542 1.324c0 .521.181.962.542 1.323.372.373.819.559 1.34.559h4.737v17.258zM300.542 124.32v-5.79h6.954c.521 0 .967-.181 1.34-.543.372-.372.558-.818.558-1.339s-.186-.968-.558-1.34a1.854 1.854 0 00-1.34-.542h-6.954v-5.79l9.633.032h.016c.521 0 .963-.187 1.324-.559.372-.361.558-.802.558-1.324 0-.521-.18-.967-.542-1.339a1.829 1.829 0 00-1.34-.559l-11.531-.031h-.016c-.521 0-.963.186-1.324.558a1.794 1.794 0 00-.559 1.34v19.124c0 .521.187.962.559 1.324.361.372.803.558 1.324.558h11.547c.521 0 .963-.186 1.324-.558.372-.362.558-.803.558-1.324s-.186-.968-.558-1.34a1.775 1.775 0 00-1.324-.558h-9.649zM327.098 128.036c1.872 0 3.642-.436 5.312-1.308.106.393.324.718.654.973.34.266.723.399 1.148.399h.016c.521 0 .962-.186 1.324-.558.372-.362.558-.803.558-1.324l.048-10.113c0-.521-.186-.967-.558-1.339a1.825 1.825 0 00-1.34-.559h-8.135a1.79 1.79 0 00-1.339.559 1.823 1.823 0 00-.559 1.339c0 .521.186.968.559 1.34.361.362.808.542 1.339.542h6.237l-.016 4.179c-.053.043-.09.075-.112.096-1.456 1.329-3.168 1.994-5.136 1.994-2.105 0-3.907-.745-5.407-2.233-1.488-1.5-2.233-3.302-2.233-5.407 0-2.095.745-3.892 2.233-5.391 1.5-1.489 3.302-2.233 5.407-2.233 1.723 0 3.27.526 4.642 1.579.415.319.882.441 1.403.367a1.8 1.8 0 001.245-.718c.319-.415.446-.877.382-1.388a1.865 1.865 0 00-.733-1.26c-2.042-1.574-4.355-2.361-6.939-2.361-3.147 0-5.837 1.117-8.07 3.35-2.233 2.222-3.35 4.907-3.35 8.055 0 3.147 1.117 5.837 3.35 8.07 2.233 2.233 4.923 3.35 8.07 3.35zM357.802 105.706a1.82 1.82 0 00-1.387-.415 1.817 1.817 0 00-1.245.702l-5.869 7.337-5.854-7.337a1.87 1.87 0 00-1.26-.702 1.823 1.823 0 00-1.388.415 1.757 1.757 0 00-.685 1.244c-.064.521.069.984.398 1.388l6.907 8.645v9.235c0 .521.186.967.558 1.339.362.362.803.543 1.324.543s.962-.181 1.324-.543c.372-.372.558-.818.558-1.339v-9.235l6.906-8.645c.33-.404.468-.867.415-1.388a1.817 1.817 0 00-.702-1.244z" fill="#FCB500"/><path d="M200.248 84.217c0 .522.186.968.558 1.34.362.362.803.543 1.324.543s.962-.181 1.324-.543c.372-.372.558-.819.558-1.34V66.96h4.753c.511 0 .952-.187 1.324-.559.362-.361.542-.803.542-1.324a1.8 1.8 0 00-.542-1.323 1.808 1.808 0 00-1.324-.559h-13.254c-.521 0-.968.186-1.34.559a1.8 1.8 0 00-.542 1.323c0 .521.18.963.542 1.324.372.372.819.559 1.34.559h4.737v17.257zM218.303 72.733v-5.79h4.722c.925 0 1.717.282 2.376.846.659.564.989 1.25.989 2.058 0 .776-.314 1.446-.941 2.01-.638.552-1.404.844-2.297.876h-4.849zm11.835-2.886c0-1.84-.696-3.408-2.089-4.706-1.383-1.297-3.057-1.946-5.024-1.946h-6.604c-.51 0-.951.186-1.324.559a1.803 1.803 0 00-.542 1.323V84.09c0 .51.181.951.542 1.324.373.361.814.542 1.324.542a1.8 1.8 0 001.324-.542 1.81 1.81 0 00.558-1.324v-7.608h3.238l4.227 8.565c.34.702.898 1.053 1.675 1.053.287 0 .563-.064.829-.192a1.79 1.79 0 00.941-1.085 1.78 1.78 0 00-.08-1.419l-3.62-7.337c1.371-.478 2.477-1.281 3.317-2.408.872-1.138 1.308-2.409 1.308-3.813zM240.777 77.487l3.062-7.401 3.079 7.4h-6.141zm-5.535 8.469c.234.096.473.144.718.144.84 0 1.42-.389 1.739-1.165l1.531-3.7h9.235l1.531 3.7c.319.776.899 1.165 1.739 1.165.244 0 .483-.048.717-.144a1.849 1.849 0 001.021-1.02 1.86 1.86 0 000-1.436l-2.026-4.865v-.016l-5.869-14.164a1.086 1.086 0 00-.08-.16c0-.01-.016-.036-.048-.079-.032-.042-.048-.069-.048-.08 0-.01-.021-.037-.063-.08l-.048-.063c0-.01-.021-.037-.064-.08-.032-.032-.048-.053-.048-.064a.35.35 0 01-.08-.064c-.032-.031-.053-.047-.063-.047a1.206 1.206 0 00-.08-.064l-.064-.048a.731.731 0 00-.096-.064c-.053-.032-.074-.042-.063-.032a1.299 1.299 0 00-.351-.143c.021 0 0-.006-.064-.016a.37.37 0 00-.112-.032l-.08-.016-.095-.016h-.367l-.08.016a.665.665 0 01-.112.016l-.063.016a.658.658 0 01-.112.032.481.481 0 01-.112.032c-.063.032-.085.042-.063.032.021-.011.005 0-.048.031a1.74 1.74 0 00-.112.048.357.357 0 00-.096.048l-.063.048c-.011.01-.038.032-.08.064-.053.032-.075.048-.064.048-.011 0-.037.02-.08.063a.508.508 0 00-.064.048c0 .01-.021.038-.063.08-.032.032-.048.053-.048.064l-.064.064c-.032.042-.048.069-.048.08-.01.01-.032.037-.064.08l-.032.079a1.186 1.186 0 00-.079.16l-5.87 14.163v.016l-2.026 4.865a1.87 1.87 0 000 1.435c.202.479.543.819 1.021 1.021zM273.331 85.382c.032.042.069.085.112.127v.016l.016.016a1.689 1.689 0 00.207.176c.042.032.08.058.112.08.01.01.031.026.063.047.032.011.069.027.112.048.021.021.042.032.064.032a.355.355 0 00.127.048c.032.021.054.032.064.032.032.01.075.021.128.032.053.021.074.026.064.016.042.01.095.02.159.032.043.01.053.01.032 0 .074.01.144.016.207.016.085 0 .176-.006.271-.016l.048-.016c.096-.011.186-.032.271-.064a.953.953 0 00.032-.016c.085-.032.17-.07.256-.112h.016c.074-.042.154-.096.239-.16l.016-.015c.042-.032.048-.037.016-.016a.328.328 0 00.079-.064c.043-.032.064-.053.064-.064.011 0 .032-.021.064-.064l.064-.063.048-.064a.628.628 0 00.063-.096l.048-.048.048-.095.048-.08.032-.08a.495.495 0 00.032-.096.29.29 0 00.032-.08.248.248 0 00.032-.095l.016-.08a.232.232 0 00.016-.096.463.463 0 00.015-.095v-.08a.415.415 0 00.016-.096V65.11c0-.52-.186-.962-.558-1.324a1.775 1.775 0 00-1.324-.558c-.521 0-.967.186-1.339.558a1.8 1.8 0 00-.543 1.324v13.622l-11.468-14.77a1.831 1.831 0 00-.941-.654 1.768 1.768 0 00-1.148.032 1.808 1.808 0 00-.925.686c-.234.319-.351.68-.351 1.084v19.108c0 .522.186.963.558 1.324.361.372.803.559 1.324.559s.962-.187 1.324-.559c.372-.361.558-.802.558-1.324V70.612l11.468 14.754v.016h.016zM297.862 79.289c.074-1.616-.457-3.025-1.595-4.227-1.382-1.467-3.376-2.222-5.981-2.265h-.08c-1.552-.021-2.658-.377-3.318-1.068-.414-.447-.611-.947-.59-1.5.043-.904.42-1.67 1.133-2.296.723-.628 1.584-.942 2.584-.942.978 0 1.845.176 2.599.527.862.404 1.388.962 1.58 1.674.127.5.414.883.861 1.149.446.255.92.319 1.419.191.5-.127.878-.414 1.133-.861a1.8 1.8 0 00.207-1.42c-.446-1.7-1.494-2.998-3.142-3.891-1.372-.745-2.924-1.117-4.657-1.117-2.01 0-3.733.66-5.168 1.978-1.436 1.319-2.196 2.935-2.281 4.849-.074 1.605.457 3.014 1.595 4.227 1.382 1.456 3.376 2.206 5.981 2.249h.032.048c1.552.02 2.658.382 3.318 1.084.414.436.611.93.59 1.483-.043.915-.426 1.68-1.149 2.297-.712.628-1.568.941-2.568.941-.978 0-1.85-.175-2.615-.526-.851-.404-1.372-.962-1.564-1.675a1.807 1.807 0 00-.861-1.148 1.84 1.84 0 00-1.419-.192c-.5.128-.883.415-1.149.862-.255.446-.319.92-.191 1.42.446 1.7 1.494 2.998 3.142 3.891 1.372.744 2.924 1.117 4.657 1.117 1.999 0 3.722-.66 5.168-1.978 1.436-1.319 2.196-2.93 2.281-4.833zM305.757 63.195h-.016c-.521 0-.962.186-1.324.559a1.794 1.794 0 00-.558 1.34v19.123c0 .522.186.963.558 1.324.362.372.803.559 1.324.559s.968-.187 1.34-.559c.372-.361.558-.802.558-1.324V76.53h6.955c.521 0 .967-.18 1.339-.542.373-.372.559-.819.559-1.34 0-.52-.186-.967-.559-1.34a1.853 1.853 0 00-1.339-.542h-6.955v-5.79l9.634.032h.016c.521 0 .962-.186 1.324-.558.372-.361.558-.803.558-1.324 0-.52-.181-.967-.542-1.34a1.828 1.828 0 00-1.34-.558l-11.532-.032zM333.271 66.96c2.116 0 3.929.75 5.439 2.249 1.499 1.51 2.249 3.322 2.249 5.438 0 2.116-.75 3.924-2.249 5.423-1.51 1.51-3.323 2.265-5.439 2.265s-3.924-.755-5.423-2.265c-1.51-1.499-2.265-3.307-2.265-5.423s.755-3.929 2.265-5.439c1.499-1.499 3.307-2.248 5.423-2.248zm0 19.14c3.158 0 5.859-1.122 8.103-3.366 2.233-2.233 3.349-4.928 3.349-8.087 0-3.158-1.116-5.859-3.349-8.102-2.244-2.233-4.945-3.35-8.103-3.35-3.158 0-5.854 1.117-8.087 3.35-2.243 2.243-3.365 4.944-3.365 8.102 0 3.158 1.122 5.854 3.365 8.087 2.233 2.244 4.929 3.366 8.087 3.366zM354.07 72.733v-5.79h4.721c.925 0 1.717.282 2.377.846.659.564.989 1.25.989 2.058 0 .776-.314 1.446-.942 2.01-.638.552-1.403.844-2.296.876h-4.849zm11.835-2.886c0-1.84-.697-3.408-2.09-4.706-1.382-1.297-3.057-1.946-5.024-1.946h-6.603c-.511 0-.952.186-1.324.559a1.8 1.8 0 00-.542 1.323V84.09c0 .51.18.951.542 1.324.372.361.813.542 1.324.542.521 0 .962-.18 1.324-.542a1.81 1.81 0 00.558-1.324v-7.608h3.238l4.227 8.565c.34.702.898 1.053 1.674 1.053.287 0 .564-.064.83-.192.468-.234.781-.595.941-1.085.17-.489.143-.962-.08-1.419l-3.621-7.337c1.372-.478 2.478-1.281 3.318-2.408.872-1.138 1.308-2.409 1.308-3.813zM392.717 63.227a1.966 1.966 0 00-1.212.064 1.82 1.82 0 00-.91.782l-7.847 12.967-7.847-12.968a1.905 1.905 0 00-.925-.781 1.923 1.923 0 00-1.197-.064 1.856 1.856 0 00-1.005.686 1.8 1.8 0 00-.382 1.133v19.171c0 .522.186.963.558 1.324.361.372.803.559 1.324.559a1.83 1.83 0 001.34-.559c.372-.361.558-.802.558-1.324V71.808l5.933 9.825c.011 0 .016.006.016.017v.015c.011 0 .016.006.016.016l.016.016c.032.053.059.09.08.112 0 .01.01.032.032.064a.267.267 0 01.079.08l.064.063.064.064a.862.862 0 00.096.08c.032.032.048.042.048.032a.417.417 0 00.111.08l.016.015.016.016h.016a.716.716 0 00.128.064c.032.021.042.032.032.032.021.01.058.027.111.048.064.021.085.027.064.016-.011 0 .011.005.064.016.138.042.276.069.415.08.063.01.085.016.063.016h.032c.266.01.521-.038.766-.144a.433.433 0 01.096-.032c-.011 0 .005-.01.047-.032a.331.331 0 00.112-.064h.016l.016-.016c.011 0 .016-.005.016-.016.042-.02.08-.042.112-.063l.047-.048a.862.862 0 00.096-.08l.064-.064.064-.064.079-.08.048-.063.064-.112.016-.016a.596.596 0 00.016-.016l.016-.016v-.016l5.949-9.825v12.41c0 .52.181.962.543 1.323.372.372.818.559 1.339.559s.968-.187 1.34-.559a1.8 1.8 0 00.542-1.324V65.046a1.8 1.8 0 00-.382-1.133 1.853 1.853 0 00-.989-.686zM406.179 77.487l3.062-7.401 3.078 7.4h-6.14zm-5.535 8.469c.234.096.473.144.718.144.84 0 1.419-.389 1.738-1.165l1.531-3.7h9.236l1.531 3.7c.319.776.898 1.165 1.738 1.165.245 0 .484-.048.718-.144a1.849 1.849 0 001.021-1.02 1.87 1.87 0 000-1.436l-2.026-4.865v-.016l-5.869-14.164a1.195 1.195 0 00-.08-.16c0-.01-.016-.036-.048-.079-.032-.042-.048-.069-.048-.08 0-.01-.021-.037-.064-.08l-.048-.063c0-.01-.021-.037-.063-.08-.032-.032-.048-.053-.048-.064a.35.35 0 01-.08-.064c-.032-.031-.053-.047-.064-.047a.896.896 0 00-.079-.064l-.064-.048a.731.731 0 00-.096-.064c-.053-.032-.074-.042-.064-.032a1.273 1.273 0 00-.351-.143c.022 0 0-.006-.063-.016a.377.377 0 00-.112-.032l-.08-.016-.096-.016h-.366l-.08.016a.678.678 0 01-.112.016l-.064.016a.66.66 0 01-.111.032.514.514 0 01-.112.032l-.064.032c.022-.011.006 0-.048.031l-.111.048a.343.343 0 00-.096.048l-.064.048a.877.877 0 01-.079.064c-.054.032-.075.048-.064.048-.011 0-.038.02-.08.063a.508.508 0 00-.064.048c0 .01-.021.038-.064.08-.032.032-.047.053-.047.064l-.064.064c-.032.042-.048.069-.048.08a.917.917 0 00-.064.08l-.032.079a1.195 1.195 0 00-.08.16l-5.869 14.163v.016l-2.026 4.865a1.87 1.87 0 000 1.435c.202.479.542.819 1.021 1.021zM427.887 84.217c0 .522.186.968.558 1.34a1.8 1.8 0 001.324.543c.521 0 .962-.181 1.324-.543.372-.372.558-.819.558-1.34V66.96h4.753c.51 0 .952-.187 1.324-.559.361-.361.542-.803.542-1.324 0-.52-.181-.962-.542-1.323a1.81 1.81 0 00-1.324-.559h-13.255c-.521 0-.967.186-1.339.559a1.8 1.8 0 00-.543 1.323c0 .521.181.963.543 1.324.372.372.818.559 1.339.559h4.738v17.257zM444.347 86.1c.521 0 .962-.187 1.324-.559.372-.361.558-.802.558-1.324V65.19c0-.521-.186-.962-.558-1.324a1.776 1.776 0 00-1.324-.558c-.521 0-.962.186-1.324.558a1.776 1.776 0 00-.558 1.324v19.028c0 .522.186.963.558 1.324.362.372.803.559 1.324.559zM463.104 66.96c2.116 0 3.929.75 5.439 2.249 1.499 1.51 2.249 3.322 2.249 5.438 0 2.116-.75 3.924-2.249 5.423-1.51 1.51-3.323 2.265-5.439 2.265s-3.923-.755-5.423-2.265c-1.51-1.499-2.265-3.307-2.265-5.423s.755-3.929 2.265-5.439c1.5-1.499 3.307-2.248 5.423-2.248zm0 19.14c3.158 0 5.859-1.122 8.103-3.366 2.233-2.233 3.349-4.928 3.349-8.087 0-3.158-1.116-5.859-3.349-8.102-2.244-2.233-4.945-3.35-8.103-3.35-3.158 0-5.853 1.117-8.086 3.35-2.244 2.243-3.366 4.944-3.366 8.102 0 3.158 1.122 5.854 3.366 8.087 2.233 2.244 4.928 3.366 8.086 3.366zM495.451 85.382c.032.042.069.085.111.127v.016l.016.016a1.881 1.881 0 00.208.176c.042.032.08.058.111.08.011.01.032.026.064.047.032.011.069.027.112.048.021.021.042.032.064.032a.355.355 0 00.127.048c.032.021.053.032.064.032.032.01.075.021.128.032.053.021.074.026.064.016.042.01.095.02.159.032.043.01.053.01.032 0 .074.01.143.016.207.016.085 0 .176-.006.271-.016l.048-.016c.096-.011.186-.032.271-.064a.953.953 0 00.032-.016c.085-.032.17-.07.256-.112h.015c.075-.042.155-.096.24-.16l.016-.015c.042-.032.048-.037.016-.016a.348.348 0 00.079-.064c.043-.032.064-.053.064-.064.011 0 .032-.021.064-.064l.064-.063.048-.064a.628.628 0 00.063-.096l.048-.048.048-.095.048-.08.032-.08a.575.575 0 00.032-.096.29.29 0 00.032-.08.248.248 0 00.032-.095l.016-.08a.235.235 0 00.015-.096.417.417 0 00.016-.095v-.08a.415.415 0 00.016-.096V65.11c0-.52-.186-.962-.558-1.324a1.775 1.775 0 00-1.324-.558 1.83 1.83 0 00-1.34.558 1.803 1.803 0 00-.542 1.324v13.622l-11.468-14.77a1.831 1.831 0 00-.941-.654 1.768 1.768 0 00-1.148.032 1.804 1.804 0 00-.925.686c-.234.319-.351.68-.351 1.084v19.108c0 .522.186.963.558 1.324.361.372.803.559 1.324.559s.962-.187 1.324-.559c.372-.361.558-.802.558-1.324V70.612l11.468 14.754v.016h.016z" fill="#000"/><path d="M199.259 25.01h2.935c2.105 0 3.902.75 5.391 2.25 1.489 1.488 2.233 3.28 2.233 5.375 0 2.105-.744 3.902-2.233 5.391-1.489 1.489-3.291 2.233-5.407 2.233l-2.919.048V25.01zm-1.866 19.093l4.801-.064c3.147 0 5.837-1.116 8.07-3.35 2.223-2.222 3.334-4.907 3.334-8.054 0-3.137-1.111-5.822-3.334-8.055-2.233-2.222-4.923-3.333-8.07-3.333h-4.833c-.521 0-.962.18-1.324.542a1.827 1.827 0 00-.558 1.34V42.22c0 .521.186.968.558 1.34.372.361.814.542 1.324.542h.032zM221.302 44.103c.521 0 .962-.186 1.324-.558.372-.362.558-.803.558-1.324V23.193c0-.521-.186-.963-.558-1.324a1.777 1.777 0 00-1.324-.558c-.521 0-.962.186-1.324.558a1.776 1.776 0 00-.558 1.324V42.22c0 .521.186.962.558 1.324.362.372.803.558 1.324.558zM240.107 44.04a11.31 11.31 0 005.311-1.309c.107.394.325.718.654.973a1.82 1.82 0 001.149.399h.016c.521 0 .962-.186 1.323-.558.373-.362.559-.803.559-1.324l.048-10.112c0-.521-.187-.968-.559-1.34a1.825 1.825 0 00-1.339-.558h-8.135c-.532 0-.978.186-1.34.558a1.828 1.828 0 00-.558 1.34c0 .52.186.967.558 1.34a1.82 1.82 0 001.34.542h6.236l-.015 4.179a1.346 1.346 0 00-.112.095c-1.457 1.33-3.169 1.994-5.136 1.994-2.105 0-3.908-.744-5.407-2.233-1.489-1.5-2.233-3.302-2.233-5.407 0-2.095.744-3.892 2.233-5.391 1.499-1.489 3.302-2.233 5.407-2.233 1.723 0 3.27.526 4.641 1.579.415.319.883.441 1.404.367.51-.064.925-.303 1.244-.718.319-.415.447-.877.383-1.388a1.866 1.866 0 00-.734-1.26c-2.041-1.573-4.354-2.36-6.938-2.36-3.147 0-5.838 1.116-8.071 3.35-2.233 2.222-3.349 4.907-3.349 8.054 0 3.148 1.116 5.838 3.349 8.07 2.233 2.234 4.924 3.35 8.071 3.35zM257.03 44.103c.521 0 .962-.186 1.324-.558.372-.362.558-.803.558-1.324V23.193c0-.521-.186-.963-.558-1.324a1.777 1.777 0 00-1.324-.558c-.521 0-.962.186-1.324.558a1.776 1.776 0 00-.558 1.324V42.22c0 .521.186.962.558 1.324.362.372.803.558 1.324.558zM270.205 42.22c0 .522.186.969.558 1.34a1.8 1.8 0 001.324.543c.521 0 .962-.18 1.324-.542.372-.372.558-.819.558-1.34V24.963h4.753c.51 0 .952-.186 1.324-.558.361-.362.542-.803.542-1.324s-.181-.962-.542-1.324a1.81 1.81 0 00-1.324-.558h-13.255c-.521 0-.967.186-1.339.558a1.8 1.8 0 00-.543 1.324c0 .521.181.962.543 1.324.372.372.818.558 1.339.558h4.738v17.258zM289.935 35.49l3.062-7.4 3.079 7.4h-6.141zm-5.535 8.47c.234.095.473.143.718.143.84 0 1.419-.388 1.738-1.164l1.532-3.7h9.235l1.531 3.7c.319.776.898 1.164 1.738 1.164.245 0 .484-.048.718-.144a1.849 1.849 0 001.021-1.02 1.87 1.87 0 000-1.436l-2.026-4.865v-.015l-5.869-14.164a1.076 1.076 0 00-.08-.16c0-.01-.016-.037-.048-.08-.032-.042-.048-.069-.048-.08 0-.01-.021-.036-.063-.079l-.048-.064c0-.01-.022-.037-.064-.08-.032-.031-.048-.053-.048-.063a.352.352 0 01-.08-.064c-.032-.032-.053-.048-.064-.048a.896.896 0 00-.079-.064 9.2 9.2 0 01-.064-.047.72.72 0 00-.096-.064c-.053-.032-.074-.043-.064-.032a1.28 1.28 0 00-.35-.144c.021 0 0-.005-.064-.016a.367.367 0 00-.112-.032l-.08-.016-.095-.015h-.367l-.08.015a.657.657 0 01-.112.016l-.063.016a.658.658 0 01-.112.032.492.492 0 01-.112.032l-.064.032c.022-.01.006 0-.047.032a1.463 1.463 0 00-.112.048.341.341 0 00-.096.048l-.064.047a.896.896 0 01-.079.064c-.053.032-.075.048-.064.048-.011 0-.037.021-.08.064a.496.496 0 00-.064.048c0 .01-.021.037-.063.08-.032.031-.048.053-.048.063l-.064.064c-.032.043-.048.07-.048.08a.893.893 0 00-.064.08l-.032.08a1.068 1.068 0 00-.079.159l-5.87 14.164v.015l-2.026 4.865a1.87 1.87 0 000 1.436c.202.478.543.819 1.021 1.02zM309.155 21.23c-.521 0-.963.187-1.324.559a1.776 1.776 0 00-.559 1.324V42.22c0 .521.187.962.559 1.324.361.372.803.558 1.324.558h10.319c.521 0 .968-.186 1.34-.558.362-.362.542-.803.542-1.324s-.18-.962-.542-1.324a1.827 1.827 0 00-1.34-.558h-8.437V23.113c0-.521-.186-.962-.559-1.324a1.773 1.773 0 00-1.323-.558z" fill="#FCB500"/></svg>