<svg width="216" height="63" viewBox="0 0 216 63" fill="none" xmlns="http://www.w3.org/2000/svg">
<path d="M41.9652 62.9859C42.8823 62.9859 43.6258 62.2424 43.6258 61.3253C43.6258 60.4082 42.8823 59.6648 41.9652 59.6648C41.0481 59.6648 40.3047 60.4082 40.3047 61.3253C40.3047 62.2424 41.0481 62.9859 41.9652 62.9859Z" fill="white"/>
<path d="M59.141 53.454C60.0581 53.454 60.8016 52.7106 60.8016 51.7935C60.8016 50.8764 60.0581 50.1329 59.141 50.1329C58.2239 50.1329 57.4805 50.8764 57.4805 51.7935C57.4805 52.7106 58.2239 53.454 59.141 53.454Z" fill="white"/>
<path d="M53.2074 3.91105C54.1245 3.91105 54.868 3.1676 54.868 2.25051C54.868 1.33342 54.1245 0.589966 53.2074 0.589966C52.2903 0.589966 51.5469 1.33342 51.5469 2.25051C51.5469 3.1676 52.2903 3.91105 53.2074 3.91105Z" fill="white"/>
<path d="M7.47603 42.2899C6.98003 42.2899 6.4984 42.0383 6.23243 41.5783L0 30.9105L17.9712 0L42.5703 0.596645L49.1621 12.0192L36.9201 33.0096L10.6821 32.4776L23.7508 10.0998L38.516 10.4018L31.5863 22.2843C31.1837 22.9672 30.3067 23.2045 29.6166 22.8019C28.9337 22.3994 28.6965 21.5224 29.099 20.8323L33.5631 13.1765L25.3826 13.0112L15.6422 29.7029L35.2955 30.1054L45.841 12.0192L40.8882 3.4361L19.6102 2.91853L3.32827 30.9105L8.71246 40.1334C9.11501 40.8163 8.87779 41.7005 8.19488 42.103C7.97204 42.2324 7.72044 42.2899 7.47603 42.2899Z" fill="white"/>
<path d="M64.8329 43.4617C64.5885 43.4617 64.3369 43.397 64.1069 43.2676C63.424 42.865 63.1868 41.988 63.5893 41.2979L68.0534 33.6422L58.2123 33.4409L51.6133 22.0184L58.9815 9.38818L65.9975 21.5367C66.3928 22.2268 66.1556 23.1038 65.4727 23.4992C64.7826 23.8946 63.9056 23.6573 63.5102 22.9744L58.9743 15.1174L54.9487 22.0256L59.9016 30.6014L73.0062 30.8674L66.0765 42.75C65.8106 43.2101 65.3289 43.4617 64.8329 43.4617Z" fill="white"/>
<path d="M53.4398 63C52.9438 63 52.4622 62.7412 52.1962 62.2812L46.0069 51.5559L51.7074 41.7868L47.6027 34.627L42.7146 43.016L32.9454 42.8147L37.4454 50.607C37.8408 51.2971 37.6035 52.1741 36.9206 52.5695C36.2305 52.9649 35.3535 52.7277 34.9582 52.0447L27.9062 39.8315L41.0828 40.0975L47.6243 28.8762L55.0285 41.794L49.3352 51.5559L54.6906 60.8363C55.086 61.5264 54.8487 62.4034 54.1658 62.7987C53.9358 62.9353 53.6842 63 53.4398 63Z" fill="white"/>
<path d="M33.0171 62.5831L18.9923 62.2956C18.2016 62.2812 17.569 61.6199 17.5834 60.8292C17.5977 60.0384 18.2663 59.4346 19.0498 59.4202L27.9707 59.5999L18.942 43.9577L14.4923 51.5847C14.0898 52.2677 13.2128 52.5049 12.5227 52.1023C11.8398 51.6998 11.6025 50.8228 12.0051 50.1327L18.9492 38.2285L33.0171 62.5831Z" fill="white"/>
<path d="M85.3994 11.8174H86.6572C87.5596 11.8174 88.3298 12.1387 88.9678 12.7812C89.6058 13.4193 89.9248 14.1872 89.9248 15.085C89.9248 15.9873 89.6058 16.7575 88.9678 17.3955C88.3298 18.0335 87.5573 18.3525 86.6504 18.3525L85.3994 18.373V11.8174ZM84.5996 20L86.6572 19.9727C88.0062 19.9727 89.1592 19.4941 90.1162 18.5371C91.0687 17.5846 91.5449 16.4339 91.5449 15.085C91.5449 13.7406 91.0687 12.5898 90.1162 11.6328C89.1592 10.6803 88.0062 10.2041 86.6572 10.2041H84.5859C84.3626 10.2041 84.1735 10.2816 84.0186 10.4365C83.859 10.596 83.7793 10.7874 83.7793 11.0107V19.1934C83.7793 19.4167 83.859 19.6081 84.0186 19.7676C84.1781 19.9225 84.3672 20 84.5859 20H84.5996ZM94.8467 20C95.07 20 95.2591 19.9202 95.4141 19.7607C95.5736 19.6058 95.6533 19.4167 95.6533 19.1934V11.0381C95.6533 10.8148 95.5736 10.6257 95.4141 10.4707C95.2591 10.3112 95.07 10.2314 94.8467 10.2314C94.6234 10.2314 94.4342 10.3112 94.2793 10.4707C94.1198 10.6257 94.04 10.8148 94.04 11.0381V19.1934C94.04 19.4167 94.1198 19.6058 94.2793 19.7607C94.4342 19.9202 94.6234 20 94.8467 20ZM102.906 19.9727C103.708 19.9727 104.467 19.7858 105.183 19.4121C105.228 19.5807 105.322 19.7197 105.463 19.8291C105.609 19.943 105.773 20 105.955 20H105.962C106.185 20 106.374 19.9202 106.529 19.7607C106.689 19.6058 106.769 19.4167 106.769 19.1934L106.789 14.8594C106.789 14.6361 106.709 14.4447 106.55 14.2852C106.39 14.1257 106.199 14.0459 105.976 14.0459H102.489C102.261 14.0459 102.07 14.1257 101.915 14.2852C101.756 14.4447 101.676 14.6361 101.676 14.8594C101.676 15.0827 101.756 15.2741 101.915 15.4336C102.07 15.5885 102.261 15.666 102.489 15.666H105.162L105.155 17.457C105.132 17.4753 105.117 17.4889 105.107 17.498C104.483 18.0677 103.749 18.3525 102.906 18.3525C102.004 18.3525 101.231 18.0335 100.589 17.3955C99.9508 16.7529 99.6318 15.9805 99.6318 15.0781C99.6318 14.1803 99.9508 13.4102 100.589 12.7676C101.231 12.1296 102.004 11.8105 102.906 11.8105C103.645 11.8105 104.308 12.0361 104.896 12.4873C105.073 12.624 105.274 12.6764 105.497 12.6445C105.716 12.6172 105.894 12.5146 106.03 12.3369C106.167 12.1592 106.222 11.9609 106.194 11.7422C106.162 11.5189 106.058 11.3389 105.88 11.2021C105.005 10.5277 104.014 10.1904 102.906 10.1904C101.557 10.1904 100.404 10.6689 99.4473 11.626C98.4902 12.5785 98.0117 13.7292 98.0117 15.0781C98.0117 16.4271 98.4902 17.5801 99.4473 18.5371C100.404 19.4941 101.557 19.9727 102.906 19.9727ZM110.159 20C110.382 20 110.572 19.9202 110.727 19.7607C110.886 19.6058 110.966 19.4167 110.966 19.1934V11.0381C110.966 10.8148 110.886 10.6257 110.727 10.4707C110.572 10.3112 110.382 10.2314 110.159 10.2314C109.936 10.2314 109.747 10.3112 109.592 10.4707C109.432 10.6257 109.353 10.8148 109.353 11.0381V19.1934C109.353 19.4167 109.432 19.6058 109.592 19.7607C109.747 19.9202 109.936 20 110.159 20ZM115.806 19.1934C115.806 19.4167 115.885 19.6081 116.045 19.7676C116.2 19.9225 116.389 20 116.612 20C116.836 20 117.025 19.9225 117.18 19.7676C117.339 19.6081 117.419 19.4167 117.419 19.1934V11.7969H119.456C119.675 11.7969 119.864 11.7171 120.023 11.5576C120.178 11.4027 120.256 11.2135 120.256 10.9902C120.256 10.7669 120.178 10.5778 120.023 10.4229C119.864 10.2633 119.675 10.1836 119.456 10.1836H113.775C113.552 10.1836 113.361 10.2633 113.201 10.4229C113.046 10.5778 112.969 10.7669 112.969 10.9902C112.969 11.2135 113.046 11.4027 113.201 11.5576C113.361 11.7171 113.552 11.7969 113.775 11.7969H115.806V19.1934ZM124.262 16.3086L125.574 13.1367L126.894 16.3086H124.262ZM121.89 19.9385C121.99 19.9795 122.092 20 122.197 20C122.557 20 122.806 19.8337 122.942 19.501L123.599 17.915H127.557L128.213 19.501C128.35 19.8337 128.598 20 128.958 20C129.063 20 129.165 19.9795 129.266 19.9385C129.471 19.8519 129.617 19.7061 129.703 19.501C129.785 19.2959 129.785 19.0908 129.703 18.8857L128.835 16.8008C128.835 16.8008 128.835 16.7985 128.835 16.7939L126.319 10.7236C126.31 10.7008 126.299 10.6781 126.285 10.6553C126.285 10.6507 126.278 10.6393 126.265 10.6211C126.251 10.6029 126.244 10.5915 126.244 10.5869C126.244 10.5824 126.235 10.571 126.217 10.5527L126.196 10.5254C126.196 10.5208 126.187 10.5094 126.169 10.4912C126.155 10.4775 126.148 10.4684 126.148 10.4639C126.139 10.4593 126.128 10.4502 126.114 10.4365C126.101 10.4229 126.091 10.416 126.087 10.416C126.082 10.4115 126.071 10.4023 126.053 10.3887C126.035 10.375 126.025 10.3682 126.025 10.3682C126.021 10.3636 126.007 10.3545 125.984 10.3408C125.962 10.3271 125.952 10.3226 125.957 10.3271C125.911 10.2998 125.861 10.2793 125.807 10.2656C125.816 10.2656 125.807 10.2633 125.779 10.2588C125.757 10.2497 125.741 10.2451 125.731 10.2451C125.731 10.2451 125.72 10.2428 125.697 10.2383C125.67 10.2337 125.656 10.2314 125.656 10.2314C125.656 10.2314 125.643 10.2314 125.615 10.2314C125.597 10.2314 125.583 10.2314 125.574 10.2314C125.57 10.2314 125.558 10.2314 125.54 10.2314C125.517 10.2314 125.504 10.2314 125.499 10.2314C125.499 10.2314 125.488 10.2337 125.465 10.2383C125.442 10.2428 125.426 10.2451 125.417 10.2451L125.39 10.252C125.362 10.2611 125.346 10.2656 125.342 10.2656C125.333 10.2702 125.317 10.2747 125.294 10.2793C125.267 10.293 125.257 10.2975 125.267 10.293C125.276 10.2884 125.269 10.293 125.246 10.3066C125.223 10.3158 125.207 10.3226 125.198 10.3271C125.194 10.3271 125.18 10.334 125.157 10.3477C125.139 10.3613 125.13 10.3682 125.13 10.3682C125.125 10.3727 125.114 10.3818 125.096 10.3955C125.073 10.4092 125.064 10.416 125.068 10.416C125.064 10.416 125.052 10.4251 125.034 10.4434C125.021 10.4525 125.011 10.4593 125.007 10.4639C125.007 10.4684 124.998 10.4798 124.979 10.498C124.966 10.5117 124.959 10.5208 124.959 10.5254C124.954 10.5299 124.945 10.5391 124.932 10.5527C124.918 10.571 124.911 10.5824 124.911 10.5869C124.907 10.5915 124.897 10.6029 124.884 10.6211C124.875 10.6439 124.87 10.6553 124.87 10.6553C124.856 10.6781 124.845 10.7008 124.836 10.7236L122.32 16.7939C122.32 16.7985 122.32 16.8008 122.32 16.8008L121.452 18.8857C121.37 19.0908 121.37 19.2959 121.452 19.501C121.539 19.7061 121.685 19.8519 121.89 19.9385ZM132.499 10.1973C132.276 10.1973 132.087 10.277 131.932 10.4365C131.772 10.5915 131.692 10.7806 131.692 11.0039V19.1934C131.692 19.4167 131.772 19.6058 131.932 19.7607C132.087 19.9202 132.276 20 132.499 20H136.922C137.145 20 137.337 19.9202 137.496 19.7607C137.651 19.6058 137.729 19.4167 137.729 19.1934C137.729 18.9701 137.651 18.7809 137.496 18.626C137.337 18.4665 137.145 18.3867 136.922 18.3867H133.306V11.0039C133.306 10.7806 133.226 10.5915 133.066 10.4365C132.911 10.277 132.722 10.1973 132.499 10.1973ZM85.8232 37.1934C85.8232 37.4167 85.903 37.6081 86.0625 37.7676C86.2174 37.9225 86.4066 38 86.6299 38C86.8532 38 87.0423 37.9225 87.1973 37.7676C87.3568 37.6081 87.4365 37.4167 87.4365 37.1934V29.7969H89.4736C89.6924 29.7969 89.8815 29.7171 90.041 29.5576C90.196 29.4027 90.2734 29.2135 90.2734 28.9902C90.2734 28.7669 90.196 28.5778 90.041 28.4229C89.8815 28.2633 89.6924 28.1836 89.4736 28.1836H83.793C83.5697 28.1836 83.3783 28.2633 83.2188 28.4229C83.0638 28.5778 82.9863 28.7669 82.9863 28.9902C82.9863 29.2135 83.0638 29.4027 83.2188 29.5576C83.3783 29.7171 83.5697 29.7969 83.793 29.7969H85.8232V37.1934ZM93.5615 32.2715V29.79H95.585C95.9814 29.79 96.321 29.9108 96.6035 30.1523C96.8861 30.3939 97.0273 30.6878 97.0273 31.0342C97.0273 31.3669 96.8929 31.654 96.624 31.8955C96.3506 32.1325 96.0225 32.2578 95.6396 32.2715H93.5615ZM98.6338 31.0342C98.6338 30.2458 98.3353 29.5736 97.7383 29.0176C97.1458 28.4616 96.4281 28.1836 95.585 28.1836H92.7549C92.5361 28.1836 92.347 28.2633 92.1875 28.4229C92.0326 28.5778 91.9551 28.7669 91.9551 28.9902V37.1387C91.9551 37.3574 92.0326 37.5465 92.1875 37.7061C92.347 37.861 92.5361 37.9385 92.7549 37.9385C92.9782 37.9385 93.1673 37.861 93.3223 37.7061C93.4818 37.5465 93.5615 37.3574 93.5615 37.1387V33.8779H94.9492L96.7607 37.5488C96.9066 37.8496 97.1458 38 97.4785 38C97.6016 38 97.7201 37.9727 97.834 37.918C98.0345 37.8177 98.1689 37.6628 98.2373 37.4531C98.3102 37.2435 98.2988 37.0407 98.2031 36.8447L96.6514 33.7002C97.2393 33.4951 97.7132 33.151 98.0732 32.668C98.4469 32.1803 98.6338 31.6357 98.6338 31.0342ZM103.193 34.3086L104.506 31.1367L105.825 34.3086H103.193ZM100.821 37.9385C100.922 37.9795 101.024 38 101.129 38C101.489 38 101.737 37.8337 101.874 37.501L102.53 35.915H106.488L107.145 37.501C107.281 37.8337 107.53 38 107.89 38C107.994 38 108.097 37.9795 108.197 37.9385C108.402 37.8519 108.548 37.7061 108.635 37.501C108.717 37.2959 108.717 37.0908 108.635 36.8857L107.767 34.8008C107.767 34.8008 107.767 34.7985 107.767 34.7939L105.251 28.7236C105.242 28.7008 105.23 28.6781 105.217 28.6553C105.217 28.6507 105.21 28.6393 105.196 28.6211C105.183 28.6029 105.176 28.5915 105.176 28.5869C105.176 28.5824 105.167 28.571 105.148 28.5527L105.128 28.5254C105.128 28.5208 105.119 28.5094 105.101 28.4912C105.087 28.4775 105.08 28.4684 105.08 28.4639C105.071 28.4593 105.06 28.4502 105.046 28.4365C105.032 28.4229 105.023 28.416 105.019 28.416C105.014 28.4115 105.003 28.4023 104.984 28.3887C104.966 28.375 104.957 28.3682 104.957 28.3682C104.952 28.3636 104.939 28.3545 104.916 28.3408C104.893 28.3271 104.884 28.3226 104.889 28.3271C104.843 28.2998 104.793 28.2793 104.738 28.2656C104.747 28.2656 104.738 28.2633 104.711 28.2588C104.688 28.2497 104.672 28.2451 104.663 28.2451C104.663 28.2451 104.652 28.2428 104.629 28.2383C104.602 28.2337 104.588 28.2314 104.588 28.2314C104.588 28.2314 104.574 28.2314 104.547 28.2314C104.529 28.2314 104.515 28.2314 104.506 28.2314C104.501 28.2314 104.49 28.2314 104.472 28.2314C104.449 28.2314 104.435 28.2314 104.431 28.2314C104.431 28.2314 104.419 28.2337 104.396 28.2383C104.374 28.2428 104.358 28.2451 104.349 28.2451L104.321 28.252C104.294 28.2611 104.278 28.2656 104.273 28.2656C104.264 28.2702 104.248 28.2747 104.226 28.2793C104.198 28.293 104.189 28.2975 104.198 28.293C104.207 28.2884 104.201 28.293 104.178 28.3066C104.155 28.3158 104.139 28.3226 104.13 28.3271C104.125 28.3271 104.112 28.334 104.089 28.3477C104.071 28.3613 104.062 28.3682 104.062 28.3682C104.057 28.3727 104.046 28.3818 104.027 28.3955C104.005 28.4092 103.995 28.416 104 28.416C103.995 28.416 103.984 28.4251 103.966 28.4434C103.952 28.4525 103.943 28.4593 103.938 28.4639C103.938 28.4684 103.929 28.4798 103.911 28.498C103.897 28.5117 103.891 28.5208 103.891 28.5254C103.886 28.5299 103.877 28.5391 103.863 28.5527C103.85 28.571 103.843 28.5824 103.843 28.5869C103.838 28.5915 103.829 28.6029 103.815 28.6211C103.806 28.6439 103.802 28.6553 103.802 28.6553C103.788 28.6781 103.777 28.7008 103.768 28.7236L101.252 34.7939C101.252 34.7985 101.252 34.8008 101.252 34.8008L100.384 36.8857C100.302 37.0908 100.302 37.2959 100.384 37.501C100.47 37.7061 100.616 37.8519 100.821 37.9385ZM117.146 37.6924C117.159 37.7106 117.175 37.7288 117.193 37.7471C117.193 37.7516 117.193 37.7539 117.193 37.7539C117.198 37.7585 117.2 37.7607 117.2 37.7607C117.218 37.779 117.239 37.7972 117.262 37.8154C117.266 37.82 117.275 37.8268 117.289 37.8359C117.307 37.8496 117.323 37.861 117.337 37.8701C117.341 37.8747 117.351 37.8815 117.364 37.8906C117.378 37.8952 117.394 37.902 117.412 37.9111C117.421 37.9202 117.43 37.9248 117.439 37.9248C117.453 37.9339 117.471 37.9408 117.494 37.9453C117.508 37.9544 117.517 37.959 117.521 37.959C117.535 37.9635 117.553 37.9681 117.576 37.9727C117.599 37.9818 117.608 37.984 117.604 37.9795C117.622 37.984 117.645 37.9886 117.672 37.9932C117.69 37.9977 117.695 37.9977 117.686 37.9932C117.717 37.9977 117.747 38 117.774 38C117.811 38 117.85 37.9977 117.891 37.9932C117.904 37.9886 117.911 37.9863 117.911 37.9863C117.952 37.9818 117.991 37.9727 118.027 37.959C118.018 37.9635 118.023 37.9613 118.041 37.9521C118.077 37.9385 118.114 37.9225 118.15 37.9043C118.15 37.9043 118.153 37.9043 118.157 37.9043C118.189 37.8861 118.223 37.8633 118.26 37.8359C118.264 37.8314 118.267 37.8291 118.267 37.8291C118.285 37.8154 118.287 37.8132 118.273 37.8223C118.283 37.8177 118.294 37.8086 118.308 37.7949C118.326 37.7812 118.335 37.7721 118.335 37.7676C118.34 37.7676 118.349 37.7585 118.362 37.7402C118.376 37.7266 118.385 37.7174 118.39 37.7129C118.39 37.7129 118.396 37.7038 118.41 37.6855C118.424 37.6673 118.433 37.6536 118.438 37.6445L118.458 37.624C118.467 37.6058 118.474 37.5921 118.479 37.583C118.479 37.583 118.485 37.5716 118.499 37.5488C118.508 37.526 118.513 37.5146 118.513 37.5146C118.517 37.5055 118.522 37.4919 118.526 37.4736C118.535 37.4554 118.54 37.444 118.54 37.4395C118.545 37.4349 118.549 37.4212 118.554 37.3984C118.558 37.3757 118.561 37.3643 118.561 37.3643C118.565 37.3551 118.567 37.3415 118.567 37.3232C118.572 37.305 118.574 37.2913 118.574 37.2822C118.574 37.2777 118.574 37.2663 118.574 37.248C118.579 37.2298 118.581 37.2161 118.581 37.207V29.0039C118.581 28.7806 118.501 28.5915 118.342 28.4365C118.187 28.277 117.998 28.1973 117.774 28.1973C117.551 28.1973 117.36 28.277 117.2 28.4365C117.045 28.5915 116.968 28.7806 116.968 29.0039V34.8418L112.053 28.5117C111.948 28.375 111.813 28.2816 111.649 28.2314C111.481 28.1813 111.317 28.1859 111.157 28.2451C110.993 28.2998 110.861 28.3978 110.761 28.5391C110.66 28.6758 110.61 28.8307 110.61 29.0039V37.1934C110.61 37.4167 110.69 37.6058 110.85 37.7607C111.005 37.9202 111.194 38 111.417 38C111.64 38 111.829 37.9202 111.984 37.7607C112.144 37.6058 112.224 37.4167 112.224 37.1934V31.3623L117.139 37.6855C117.139 37.6901 117.139 37.6924 117.139 37.6924C117.139 37.6924 117.141 37.6924 117.146 37.6924ZM127.659 35.0811C127.691 34.3883 127.463 33.7845 126.976 33.2695C126.383 32.6406 125.529 32.3171 124.412 32.2988H124.378C123.713 32.2897 123.239 32.137 122.956 31.8408C122.778 31.6494 122.694 31.4352 122.703 31.1982C122.721 30.8109 122.883 30.4827 123.188 30.2139C123.498 29.945 123.868 29.8105 124.296 29.8105C124.715 29.8105 125.087 29.8857 125.41 30.0361C125.779 30.2093 126.005 30.4486 126.087 30.7539C126.142 30.9681 126.265 31.1322 126.456 31.2461C126.647 31.3555 126.85 31.3828 127.064 31.3281C127.279 31.2734 127.44 31.1504 127.55 30.959C127.664 30.7676 127.693 30.5648 127.639 30.3506C127.447 29.6214 126.998 29.0654 126.292 28.6826C125.704 28.3636 125.039 28.2041 124.296 28.2041C123.435 28.2041 122.696 28.4867 122.081 29.0518C121.466 29.6169 121.14 30.3096 121.104 31.1299C121.072 31.818 121.299 32.4219 121.787 32.9414C122.38 33.5658 123.234 33.887 124.351 33.9053C124.355 33.9053 124.36 33.9053 124.364 33.9053C124.355 33.9053 124.36 33.9053 124.378 33.9053H124.385C125.05 33.9144 125.524 34.0693 125.807 34.3701C125.984 34.557 126.069 34.7689 126.06 35.0059C126.041 35.3978 125.877 35.7259 125.567 35.9902C125.262 36.2591 124.895 36.3936 124.467 36.3936C124.048 36.3936 123.674 36.3184 123.346 36.168C122.981 35.9948 122.758 35.7555 122.676 35.4502C122.621 35.236 122.498 35.0719 122.307 34.958C122.115 34.8486 121.912 34.8213 121.698 34.876C121.484 34.9307 121.32 35.0537 121.206 35.2451C121.097 35.4365 121.069 35.6393 121.124 35.8535C121.315 36.5827 121.764 37.1387 122.471 37.5215C123.059 37.8405 123.724 38 124.467 38C125.324 38 126.062 37.7174 126.682 37.1523C127.297 36.5872 127.623 35.8968 127.659 35.0811ZM131.043 28.1836H131.036C130.813 28.1836 130.624 28.2633 130.469 28.4229C130.309 28.5778 130.229 28.7692 130.229 28.9971V37.1934C130.229 37.4167 130.309 37.6058 130.469 37.7607C130.624 37.9202 130.813 38 131.036 38C131.259 38 131.451 37.9202 131.61 37.7607C131.77 37.6058 131.85 37.4167 131.85 37.1934V33.8984H134.83C135.053 33.8984 135.245 33.821 135.404 33.666C135.564 33.5065 135.644 33.3151 135.644 33.0918C135.644 32.8685 135.564 32.6771 135.404 32.5176C135.245 32.3626 135.053 32.2852 134.83 32.2852H131.85V29.8037L135.979 29.8174H135.985C136.209 29.8174 136.398 29.7376 136.553 29.5781C136.712 29.4232 136.792 29.234 136.792 29.0107C136.792 28.7874 136.715 28.596 136.56 28.4365C136.4 28.277 136.209 28.1973 135.985 28.1973L131.043 28.1836ZM142.835 29.7969C143.742 29.7969 144.519 30.1182 145.166 30.7607C145.809 31.4079 146.13 32.1849 146.13 33.0918C146.13 33.9987 145.809 34.7734 145.166 35.416C144.519 36.0632 143.742 36.3867 142.835 36.3867C141.928 36.3867 141.153 36.0632 140.511 35.416C139.864 34.7734 139.54 33.9987 139.54 33.0918C139.54 32.1849 139.864 31.4079 140.511 30.7607C141.153 30.1182 141.928 29.7969 142.835 29.7969ZM142.835 38C144.188 38 145.346 37.5192 146.308 36.5576C147.265 35.6006 147.743 34.4453 147.743 33.0918C147.743 31.7383 147.265 30.5807 146.308 29.6191C145.346 28.6621 144.188 28.1836 142.835 28.1836C141.481 28.1836 140.326 28.6621 139.369 29.6191C138.408 30.5807 137.927 31.7383 137.927 33.0918C137.927 34.4453 138.408 35.6006 139.369 36.5576C140.326 37.5192 141.481 38 142.835 38ZM151.749 32.2715V29.79H153.772C154.169 29.79 154.508 29.9108 154.791 30.1523C155.074 30.3939 155.215 30.6878 155.215 31.0342C155.215 31.3669 155.08 31.654 154.812 31.8955C154.538 32.1325 154.21 32.2578 153.827 32.2715H151.749ZM156.821 31.0342C156.821 30.2458 156.523 29.5736 155.926 29.0176C155.333 28.4616 154.616 28.1836 153.772 28.1836H150.942C150.724 28.1836 150.535 28.2633 150.375 28.4229C150.22 28.5778 150.143 28.7669 150.143 28.9902V37.1387C150.143 37.3574 150.22 37.5465 150.375 37.7061C150.535 37.861 150.724 37.9385 150.942 37.9385C151.166 37.9385 151.355 37.861 151.51 37.7061C151.669 37.5465 151.749 37.3574 151.749 37.1387V33.8779H153.137L154.948 37.5488C155.094 37.8496 155.333 38 155.666 38C155.789 38 155.908 37.9727 156.021 37.918C156.222 37.8177 156.356 37.6628 156.425 37.4531C156.498 37.2435 156.486 37.0407 156.391 36.8447L154.839 33.7002C155.427 33.4951 155.901 33.151 156.261 32.668C156.634 32.1803 156.821 31.6357 156.821 31.0342ZM168.312 28.1973C168.135 28.1517 167.962 28.1608 167.793 28.2246C167.624 28.293 167.494 28.4046 167.403 28.5596L164.04 34.1172L160.677 28.5596C160.581 28.4046 160.449 28.293 160.28 28.2246C160.112 28.1608 159.941 28.1517 159.768 28.1973C159.59 28.2474 159.446 28.3454 159.337 28.4912C159.228 28.6325 159.173 28.7943 159.173 28.9766V37.1934C159.173 37.4167 159.253 37.6058 159.412 37.7607C159.567 37.9202 159.756 38 159.979 38C160.203 38 160.394 37.9202 160.554 37.7607C160.713 37.6058 160.793 37.4167 160.793 37.1934V31.875L163.336 36.0859C163.34 36.0859 163.343 36.0882 163.343 36.0928V36.0996C163.347 36.0996 163.35 36.1019 163.35 36.1064C163.354 36.111 163.356 36.1133 163.356 36.1133C163.37 36.1361 163.382 36.152 163.391 36.1611C163.391 36.1657 163.395 36.1748 163.404 36.1885C163.423 36.2021 163.434 36.2135 163.438 36.2227C163.443 36.2272 163.452 36.2363 163.466 36.25C163.479 36.2637 163.489 36.2728 163.493 36.2773C163.502 36.2865 163.516 36.2979 163.534 36.3115C163.548 36.3252 163.555 36.3298 163.555 36.3252C163.568 36.3389 163.584 36.3503 163.603 36.3594C163.607 36.3639 163.609 36.3662 163.609 36.3662C163.614 36.3708 163.616 36.373 163.616 36.373H163.623C163.637 36.3822 163.655 36.3913 163.678 36.4004C163.691 36.4095 163.696 36.4141 163.691 36.4141C163.701 36.4186 163.716 36.4255 163.739 36.4346C163.767 36.4437 163.776 36.446 163.767 36.4414C163.762 36.4414 163.771 36.4437 163.794 36.4482C163.853 36.4665 163.912 36.4779 163.972 36.4824C163.999 36.487 164.008 36.4893 163.999 36.4893H164.013C164.127 36.4938 164.236 36.4733 164.341 36.4277C164.364 36.4186 164.377 36.4141 164.382 36.4141C164.377 36.4141 164.384 36.4095 164.402 36.4004C164.425 36.3913 164.441 36.3822 164.45 36.373C164.455 36.373 164.457 36.373 164.457 36.373C164.457 36.373 164.459 36.3708 164.464 36.3662C164.468 36.3662 164.471 36.3639 164.471 36.3594C164.489 36.3503 164.505 36.3411 164.519 36.332C164.519 36.332 164.525 36.3252 164.539 36.3115C164.557 36.2979 164.571 36.2865 164.58 36.2773C164.585 36.2728 164.594 36.2637 164.607 36.25C164.621 36.2363 164.63 36.2272 164.635 36.2227C164.639 36.2181 164.651 36.2067 164.669 36.1885L164.689 36.1611C164.694 36.152 164.703 36.1361 164.717 36.1133C164.717 36.1133 164.719 36.111 164.724 36.1064C164.728 36.1019 164.73 36.0996 164.73 36.0996L164.737 36.0928C164.737 36.0882 164.737 36.0859 164.737 36.0859L167.287 31.875V37.1934C167.287 37.4167 167.365 37.6058 167.52 37.7607C167.679 37.9202 167.87 38 168.094 38C168.317 38 168.508 37.9202 168.668 37.7607C168.823 37.6058 168.9 37.4167 168.9 37.1934V28.9766C168.9 28.7943 168.846 28.6325 168.736 28.4912C168.627 28.3454 168.486 28.2474 168.312 28.1973ZM174.082 34.3086L175.395 31.1367L176.714 34.3086H174.082ZM171.71 37.9385C171.81 37.9795 171.913 38 172.018 38C172.378 38 172.626 37.8337 172.763 37.501L173.419 35.915H177.377L178.033 37.501C178.17 37.8337 178.418 38 178.778 38C178.883 38 178.986 37.9795 179.086 37.9385C179.291 37.8519 179.437 37.7061 179.523 37.501C179.605 37.2959 179.605 37.0908 179.523 36.8857L178.655 34.8008C178.655 34.8008 178.655 34.7985 178.655 34.7939L176.14 28.7236C176.131 28.7008 176.119 28.6781 176.105 28.6553C176.105 28.6507 176.099 28.6393 176.085 28.6211C176.071 28.6029 176.064 28.5915 176.064 28.5869C176.064 28.5824 176.055 28.571 176.037 28.5527L176.017 28.5254C176.017 28.5208 176.007 28.5094 175.989 28.4912C175.976 28.4775 175.969 28.4684 175.969 28.4639C175.96 28.4593 175.948 28.4502 175.935 28.4365C175.921 28.4229 175.912 28.416 175.907 28.416C175.903 28.4115 175.891 28.4023 175.873 28.3887C175.855 28.375 175.846 28.3682 175.846 28.3682C175.841 28.3636 175.827 28.3545 175.805 28.3408C175.782 28.3271 175.773 28.3226 175.777 28.3271C175.732 28.2998 175.682 28.2793 175.627 28.2656C175.636 28.2656 175.627 28.2633 175.6 28.2588C175.577 28.2497 175.561 28.2451 175.552 28.2451C175.552 28.2451 175.54 28.2428 175.518 28.2383C175.49 28.2337 175.477 28.2314 175.477 28.2314C175.477 28.2314 175.463 28.2314 175.436 28.2314C175.417 28.2314 175.404 28.2314 175.395 28.2314C175.39 28.2314 175.379 28.2314 175.36 28.2314C175.338 28.2314 175.324 28.2314 175.319 28.2314C175.319 28.2314 175.308 28.2337 175.285 28.2383C175.262 28.2428 175.246 28.2451 175.237 28.2451L175.21 28.252C175.183 28.2611 175.167 28.2656 175.162 28.2656C175.153 28.2702 175.137 28.2747 175.114 28.2793C175.087 28.293 175.078 28.2975 175.087 28.293C175.096 28.2884 175.089 28.293 175.066 28.3066C175.044 28.3158 175.028 28.3226 175.019 28.3271C175.014 28.3271 175 28.334 174.978 28.3477C174.959 28.3613 174.95 28.3682 174.95 28.3682C174.946 28.3727 174.934 28.3818 174.916 28.3955C174.893 28.4092 174.884 28.416 174.889 28.416C174.884 28.416 174.873 28.4251 174.854 28.4434C174.841 28.4525 174.832 28.4593 174.827 28.4639C174.827 28.4684 174.818 28.4798 174.8 28.498C174.786 28.5117 174.779 28.5208 174.779 28.5254C174.775 28.5299 174.766 28.5391 174.752 28.5527C174.738 28.571 174.731 28.5824 174.731 28.5869C174.727 28.5915 174.718 28.6029 174.704 28.6211C174.695 28.6439 174.69 28.6553 174.69 28.6553C174.677 28.6781 174.665 28.7008 174.656 28.7236L172.141 34.7939C172.141 34.7985 172.141 34.8008 172.141 34.8008L171.272 36.8857C171.19 37.0908 171.19 37.2959 171.272 37.501C171.359 37.7061 171.505 37.8519 171.71 37.9385ZM183.386 37.1934C183.386 37.4167 183.465 37.6081 183.625 37.7676C183.78 37.9225 183.969 38 184.192 38C184.416 38 184.605 37.9225 184.76 37.7676C184.919 37.6081 184.999 37.4167 184.999 37.1934V29.7969H187.036C187.255 29.7969 187.444 29.7171 187.604 29.5576C187.758 29.4027 187.836 29.2135 187.836 28.9902C187.836 28.7669 187.758 28.5778 187.604 28.4229C187.444 28.2633 187.255 28.1836 187.036 28.1836H181.355C181.132 28.1836 180.941 28.2633 180.781 28.4229C180.626 28.5778 180.549 28.7669 180.549 28.9902C180.549 29.2135 180.626 29.4027 180.781 29.5576C180.941 29.7171 181.132 29.7969 181.355 29.7969H183.386V37.1934ZM190.44 38C190.664 38 190.853 37.9202 191.008 37.7607C191.167 37.6058 191.247 37.4167 191.247 37.1934V29.0381C191.247 28.8148 191.167 28.6257 191.008 28.4707C190.853 28.3112 190.664 28.2314 190.44 28.2314C190.217 28.2314 190.028 28.3112 189.873 28.4707C189.714 28.6257 189.634 28.8148 189.634 29.0381V37.1934C189.634 37.4167 189.714 37.6058 189.873 37.7607C190.028 37.9202 190.217 38 190.44 38ZM198.479 29.7969C199.386 29.7969 200.163 30.1182 200.811 30.7607C201.453 31.4079 201.774 32.1849 201.774 33.0918C201.774 33.9987 201.453 34.7734 200.811 35.416C200.163 36.0632 199.386 36.3867 198.479 36.3867C197.573 36.3867 196.798 36.0632 196.155 35.416C195.508 34.7734 195.185 33.9987 195.185 33.0918C195.185 32.1849 195.508 31.4079 196.155 30.7607C196.798 30.1182 197.573 29.7969 198.479 29.7969ZM198.479 38C199.833 38 200.991 37.5192 201.952 36.5576C202.909 35.6006 203.388 34.4453 203.388 33.0918C203.388 31.7383 202.909 30.5807 201.952 29.6191C200.991 28.6621 199.833 28.1836 198.479 28.1836C197.126 28.1836 195.971 28.6621 195.014 29.6191C194.052 30.5807 193.571 31.7383 193.571 33.0918C193.571 34.4453 194.052 35.6006 195.014 36.5576C195.971 37.5192 197.126 38 198.479 38ZM212.343 37.6924C212.356 37.7106 212.372 37.7288 212.391 37.7471C212.391 37.7516 212.391 37.7539 212.391 37.7539C212.395 37.7585 212.397 37.7607 212.397 37.7607C212.416 37.779 212.436 37.7972 212.459 37.8154C212.464 37.82 212.473 37.8268 212.486 37.8359C212.505 37.8496 212.521 37.861 212.534 37.8701C212.539 37.8747 212.548 37.8815 212.562 37.8906C212.575 37.8952 212.591 37.902 212.609 37.9111C212.618 37.9202 212.628 37.9248 212.637 37.9248C212.65 37.9339 212.669 37.9408 212.691 37.9453C212.705 37.9544 212.714 37.959 212.719 37.959C212.732 37.9635 212.751 37.9681 212.773 37.9727C212.796 37.9818 212.805 37.984 212.801 37.9795C212.819 37.984 212.842 37.9886 212.869 37.9932C212.887 37.9977 212.892 37.9977 212.883 37.9932C212.915 37.9977 212.944 38 212.972 38C213.008 38 213.047 37.9977 213.088 37.9932C213.102 37.9886 213.108 37.9863 213.108 37.9863C213.149 37.9818 213.188 37.9727 213.225 37.959C213.215 37.9635 213.22 37.9613 213.238 37.9521C213.275 37.9385 213.311 37.9225 213.348 37.9043C213.348 37.9043 213.35 37.9043 213.354 37.9043C213.386 37.8861 213.421 37.8633 213.457 37.8359C213.462 37.8314 213.464 37.8291 213.464 37.8291C213.482 37.8154 213.484 37.8132 213.471 37.8223C213.48 37.8177 213.491 37.8086 213.505 37.7949C213.523 37.7812 213.532 37.7721 213.532 37.7676C213.537 37.7676 213.546 37.7585 213.56 37.7402C213.573 37.7266 213.582 37.7174 213.587 37.7129C213.587 37.7129 213.594 37.7038 213.607 37.6855C213.621 37.6673 213.63 37.6536 213.635 37.6445L213.655 37.624C213.664 37.6058 213.671 37.5921 213.676 37.583C213.676 37.583 213.683 37.5716 213.696 37.5488C213.705 37.526 213.71 37.5146 213.71 37.5146C213.715 37.5055 213.719 37.4919 213.724 37.4736C213.733 37.4554 213.737 37.444 213.737 37.4395C213.742 37.4349 213.746 37.4212 213.751 37.3984C213.756 37.3757 213.758 37.3643 213.758 37.3643C213.762 37.3551 213.765 37.3415 213.765 37.3232C213.769 37.305 213.771 37.2913 213.771 37.2822C213.771 37.2777 213.771 37.2663 213.771 37.248C213.776 37.2298 213.778 37.2161 213.778 37.207V29.0039C213.778 28.7806 213.699 28.5915 213.539 28.4365C213.384 28.277 213.195 28.1973 212.972 28.1973C212.748 28.1973 212.557 28.277 212.397 28.4365C212.243 28.5915 212.165 28.7806 212.165 29.0039V34.8418L207.25 28.5117C207.145 28.375 207.011 28.2816 206.847 28.2314C206.678 28.1813 206.514 28.1859 206.354 28.2451C206.19 28.2998 206.058 28.3978 205.958 28.5391C205.858 28.6758 205.808 28.8307 205.808 29.0039V37.1934C205.808 37.4167 205.887 37.6058 206.047 37.7607C206.202 37.9202 206.391 38 206.614 38C206.838 38 207.027 37.9202 207.182 37.7607C207.341 37.6058 207.421 37.4167 207.421 37.1934V31.3623L212.336 37.6855C212.336 37.6901 212.336 37.6924 212.336 37.6924C212.336 37.6924 212.338 37.6924 212.343 37.6924ZM89.9795 53.0811C90.0114 52.3883 89.7835 51.7845 89.2959 51.2695C88.7035 50.6406 87.849 50.3171 86.7324 50.2988H86.6982C86.0329 50.2897 85.5589 50.137 85.2764 49.8408C85.0986 49.6494 85.0143 49.4352 85.0234 49.1982C85.0417 48.8109 85.2035 48.4827 85.5088 48.2139C85.8187 47.945 86.1878 47.8105 86.6162 47.8105C87.0355 47.8105 87.4069 47.8857 87.7305 48.0361C88.0996 48.2093 88.3252 48.4486 88.4072 48.7539C88.4619 48.9681 88.585 49.1322 88.7764 49.2461C88.9678 49.3555 89.1706 49.3828 89.3848 49.3281C89.599 49.2734 89.7607 49.1504 89.8701 48.959C89.984 48.7676 90.0137 48.5648 89.959 48.3506C89.7676 47.6214 89.3187 47.0654 88.6123 46.6826C88.0244 46.3636 87.359 46.2041 86.6162 46.2041C85.7549 46.2041 85.0166 46.4867 84.4014 47.0518C83.7861 47.6169 83.4603 48.3096 83.4238 49.1299C83.3919 49.818 83.6198 50.4219 84.1074 50.9414C84.6999 51.5658 85.5544 51.887 86.6709 51.9053C86.6755 51.9053 86.68 51.9053 86.6846 51.9053C86.6755 51.9053 86.68 51.9053 86.6982 51.9053H86.7051C87.3704 51.9144 87.8444 52.0693 88.127 52.3701C88.3047 52.557 88.389 52.7689 88.3799 53.0059C88.3617 53.3978 88.1976 53.7259 87.8877 53.9902C87.5824 54.2591 87.2155 54.3936 86.7871 54.3936C86.3678 54.3936 85.9941 54.3184 85.666 54.168C85.3014 53.9948 85.0781 53.7555 84.9961 53.4502C84.9414 53.236 84.8184 53.0719 84.627 52.958C84.4355 52.8486 84.2327 52.8213 84.0186 52.876C83.8044 52.9307 83.6403 53.0537 83.5264 53.2451C83.417 53.4365 83.3896 53.6393 83.4443 53.8535C83.6357 54.5827 84.0846 55.1387 84.791 55.5215C85.3789 55.8405 86.0443 56 86.7871 56C87.6439 56 88.3822 55.7174 89.002 55.1523C89.6172 54.5872 89.943 53.8968 89.9795 53.0811ZM94.1768 55.1934C94.1768 55.4167 94.2565 55.6081 94.416 55.7676C94.571 55.9225 94.7601 56 94.9834 56C95.2067 56 95.3958 55.9225 95.5508 55.7676C95.7103 55.6081 95.79 55.4167 95.79 55.1934V47.7969H97.8271C98.0459 47.7969 98.235 47.7171 98.3945 47.5576C98.5495 47.4027 98.627 47.2135 98.627 46.9902C98.627 46.7669 98.5495 46.5778 98.3945 46.4229C98.235 46.2633 98.0459 46.1836 97.8271 46.1836H92.1465C91.9232 46.1836 91.7318 46.2633 91.5723 46.4229C91.4173 46.5778 91.3398 46.7669 91.3398 46.9902C91.3398 47.2135 91.4173 47.4027 91.5723 47.5576C91.7318 47.7171 91.9232 47.7969 92.1465 47.7969H94.1768V55.1934ZM102.011 50.2715V47.79H104.034C104.431 47.79 104.77 47.9108 105.053 48.1523C105.335 48.3939 105.477 48.6878 105.477 49.0342C105.477 49.3669 105.342 49.654 105.073 49.8955C104.8 50.1325 104.472 50.2578 104.089 50.2715H102.011ZM107.083 49.0342C107.083 48.2458 106.785 47.5736 106.188 47.0176C105.595 46.4616 104.877 46.1836 104.034 46.1836H101.204C100.985 46.1836 100.796 46.2633 100.637 46.4229C100.482 46.5778 100.404 46.7669 100.404 46.9902V55.1387C100.404 55.3574 100.482 55.5465 100.637 55.7061C100.796 55.861 100.985 55.9385 101.204 55.9385C101.427 55.9385 101.617 55.861 101.771 55.7061C101.931 55.5465 102.011 55.3574 102.011 55.1387V51.8779H103.398L105.21 55.5488C105.356 55.8496 105.595 56 105.928 56C106.051 56 106.169 55.9727 106.283 55.918C106.484 55.8177 106.618 55.6628 106.687 55.4531C106.759 55.2435 106.748 55.0407 106.652 54.8447L105.101 51.7002C105.688 51.4951 106.162 51.151 106.522 50.668C106.896 50.1803 107.083 49.6357 107.083 49.0342ZM111.643 52.3086L112.955 49.1367L114.274 52.3086H111.643ZM109.271 55.9385C109.371 55.9795 109.473 56 109.578 56C109.938 56 110.187 55.8337 110.323 55.501L110.979 53.915H114.938L115.594 55.501C115.73 55.8337 115.979 56 116.339 56C116.444 56 116.546 55.9795 116.646 55.9385C116.852 55.8519 116.997 55.7061 117.084 55.501C117.166 55.2959 117.166 55.0908 117.084 54.8857L116.216 52.8008C116.216 52.8008 116.216 52.7985 116.216 52.7939L113.7 46.7236C113.691 46.7008 113.68 46.6781 113.666 46.6553C113.666 46.6507 113.659 46.6393 113.646 46.6211C113.632 46.6029 113.625 46.5915 113.625 46.5869C113.625 46.5824 113.616 46.571 113.598 46.5527L113.577 46.5254C113.577 46.5208 113.568 46.5094 113.55 46.4912C113.536 46.4775 113.529 46.4684 113.529 46.4639C113.52 46.4593 113.509 46.4502 113.495 46.4365C113.481 46.4229 113.472 46.416 113.468 46.416C113.463 46.4115 113.452 46.4023 113.434 46.3887C113.415 46.375 113.406 46.3682 113.406 46.3682C113.402 46.3636 113.388 46.3545 113.365 46.3408C113.342 46.3271 113.333 46.3226 113.338 46.3271C113.292 46.2998 113.242 46.2793 113.188 46.2656C113.197 46.2656 113.188 46.2633 113.16 46.2588C113.137 46.2497 113.121 46.2451 113.112 46.2451C113.112 46.2451 113.101 46.2428 113.078 46.2383C113.051 46.2337 113.037 46.2314 113.037 46.2314C113.037 46.2314 113.023 46.2314 112.996 46.2314C112.978 46.2314 112.964 46.2314 112.955 46.2314C112.951 46.2314 112.939 46.2314 112.921 46.2314C112.898 46.2314 112.884 46.2314 112.88 46.2314C112.88 46.2314 112.868 46.2337 112.846 46.2383C112.823 46.2428 112.807 46.2451 112.798 46.2451L112.771 46.252C112.743 46.2611 112.727 46.2656 112.723 46.2656C112.714 46.2702 112.698 46.2747 112.675 46.2793C112.647 46.293 112.638 46.2975 112.647 46.293C112.657 46.2884 112.65 46.293 112.627 46.3066C112.604 46.3158 112.588 46.3226 112.579 46.3271C112.575 46.3271 112.561 46.334 112.538 46.3477C112.52 46.3613 112.511 46.3682 112.511 46.3682C112.506 46.3727 112.495 46.3818 112.477 46.3955C112.454 46.4092 112.445 46.416 112.449 46.416C112.445 46.416 112.433 46.4251 112.415 46.4434C112.401 46.4525 112.392 46.4593 112.388 46.4639C112.388 46.4684 112.379 46.4798 112.36 46.498C112.347 46.5117 112.34 46.5208 112.34 46.5254C112.335 46.5299 112.326 46.5391 112.312 46.5527C112.299 46.571 112.292 46.5824 112.292 46.5869C112.287 46.5915 112.278 46.6029 112.265 46.6211C112.256 46.6439 112.251 46.6553 112.251 46.6553C112.237 46.6781 112.226 46.7008 112.217 46.7236L109.701 52.7939C109.701 52.7985 109.701 52.8008 109.701 52.8008L108.833 54.8857C108.751 55.0908 108.751 55.2959 108.833 55.501C108.92 55.7061 109.065 55.8519 109.271 55.9385ZM120.946 55.1934C120.946 55.4167 121.026 55.6081 121.186 55.7676C121.34 55.9225 121.53 56 121.753 56C121.976 56 122.165 55.9225 122.32 55.7676C122.48 55.6081 122.56 55.4167 122.56 55.1934V47.7969H124.597C124.815 47.7969 125.005 47.7171 125.164 47.5576C125.319 47.4027 125.396 47.2135 125.396 46.9902C125.396 46.7669 125.319 46.5778 125.164 46.4229C125.005 46.2633 124.815 46.1836 124.597 46.1836H118.916C118.693 46.1836 118.501 46.2633 118.342 46.4229C118.187 46.5778 118.109 46.7669 118.109 46.9902C118.109 47.2135 118.187 47.4027 118.342 47.5576C118.501 47.7171 118.693 47.7969 118.916 47.7969H120.946V55.1934ZM128.808 54.3799V51.8984H131.788C132.011 51.8984 132.203 51.821 132.362 51.666C132.522 51.5065 132.602 51.3151 132.602 51.0918C132.602 50.8685 132.522 50.6771 132.362 50.5176C132.203 50.3626 132.011 50.2852 131.788 50.2852H128.808V47.8037L132.937 47.8174H132.943C133.167 47.8174 133.356 47.7376 133.511 47.5781C133.67 47.4232 133.75 47.234 133.75 47.0107C133.75 46.7874 133.673 46.596 133.518 46.4365C133.358 46.277 133.167 46.1973 132.943 46.1973L128.001 46.1836H127.994C127.771 46.1836 127.582 46.2633 127.427 46.4229C127.267 46.5778 127.188 46.7692 127.188 46.9971V55.1934C127.188 55.4167 127.267 55.6058 127.427 55.7607C127.582 55.9202 127.771 56 127.994 56H132.943C133.167 56 133.356 55.9202 133.511 55.7607C133.67 55.6058 133.75 55.4167 133.75 55.1934C133.75 54.9701 133.67 54.7786 133.511 54.6191C133.356 54.4596 133.167 54.3799 132.943 54.3799H128.808ZM140.189 55.9727C140.992 55.9727 141.75 55.7858 142.466 55.4121C142.511 55.5807 142.605 55.7197 142.746 55.8291C142.892 55.943 143.056 56 143.238 56H143.245C143.468 56 143.658 55.9202 143.812 55.7607C143.972 55.6058 144.052 55.4167 144.052 55.1934L144.072 50.8594C144.072 50.6361 143.993 50.4447 143.833 50.2852C143.674 50.1257 143.482 50.0459 143.259 50.0459H139.772C139.545 50.0459 139.353 50.1257 139.198 50.2852C139.039 50.4447 138.959 50.6361 138.959 50.8594C138.959 51.0827 139.039 51.2741 139.198 51.4336C139.353 51.5885 139.545 51.666 139.772 51.666H142.445L142.438 53.457C142.416 53.4753 142.4 53.4889 142.391 53.498C141.766 54.0677 141.033 54.3525 140.189 54.3525C139.287 54.3525 138.515 54.0335 137.872 53.3955C137.234 52.7529 136.915 51.9805 136.915 51.0781C136.915 50.1803 137.234 49.4102 137.872 48.7676C138.515 48.1296 139.287 47.8105 140.189 47.8105C140.928 47.8105 141.591 48.0361 142.179 48.4873C142.356 48.624 142.557 48.6764 142.78 48.6445C142.999 48.6172 143.177 48.5146 143.313 48.3369C143.45 48.1592 143.505 47.9609 143.478 47.7422C143.446 47.5189 143.341 47.3389 143.163 47.2021C142.288 46.5277 141.297 46.1904 140.189 46.1904C138.84 46.1904 137.688 46.6689 136.73 47.626C135.773 48.5785 135.295 49.7292 135.295 51.0781C135.295 52.4271 135.773 53.5801 136.73 54.5371C137.688 55.4941 138.84 55.9727 140.189 55.9727ZM153.349 46.4023C153.175 46.2611 152.977 46.2018 152.754 46.2246C152.535 46.252 152.357 46.3522 152.221 46.5254L149.705 49.6699L147.196 46.5254C147.055 46.3522 146.875 46.252 146.656 46.2246C146.433 46.2018 146.235 46.2611 146.062 46.4023C145.888 46.5391 145.79 46.7168 145.768 46.9355C145.74 47.1589 145.797 47.3571 145.938 47.5303L148.898 51.2354V55.1934C148.898 55.4167 148.978 55.6081 149.138 55.7676C149.293 55.9225 149.482 56 149.705 56C149.928 56 150.118 55.9225 150.272 55.7676C150.432 55.6081 150.512 55.4167 150.512 55.1934V51.2354L153.472 47.5303C153.613 47.3571 153.672 47.1589 153.649 46.9355C153.622 46.7168 153.522 46.5391 153.349 46.4023Z" fill="white"/>
</svg>
